<?xml version="1.0" standalone="no"?>
<!DOCTYPE svg PUBLIC "-//W3C//DTD SVG 20010904//EN"
 "http://www.w3.org/TR/2001/REC-SVG-20010904/DTD/svg10.dtd">
<svg version="1.0" xmlns="http://www.w3.org/2000/svg"
 width="422.000000pt" height="422.000000pt" viewBox="0 0 422.000000 422.000000"
 preserveAspectRatio="xMidYMid meet">
<metadata>
Created by potrace 1.11, written by Peter Selinger 2001-2013
</metadata>
<g transform="translate(0.000000,422.000000) scale(0.100000,-0.100000)"
fill="#000000" stroke="none">
<path d="M605 4145 c-247 -54 -426 -215 -512 -460 l-28 -80 0 -1465 c0 -1590
-3 -1507 55 -1637 34 -76 76 -137 135 -199 47 -49 150 -121 204 -144 17 -7 29
-15 27 -19 -2 -3 6 -6 17 -7 12 0 36 -4 52 -8 17 -4 53 -12 80 -17 39 -7 2830
-15 2855 -8 7 2 49 7 92 11 21 1 38 7 38 12 0 4 9 6 20 3 11 -3 18 -2 15 3 -4
7 50 24 68 21 4 0 7 3 7 7 0 13 50 33 62 26 7 -4 8 -2 4 4 -4 6 6 18 24 27 17
9 60 45 95 79 36 35 67 61 71 57 4 -3 4 0 0 6 -4 7 2 22 13 34 10 11 32 47 47
79 15 33 32 56 37 53 6 -3 7 -1 3 5 -8 13 15 103 24 97 4 -3 5 7 2 20 -2 13 1
38 6 55 7 20 8 30 1 30 -6 0 -7 5 -3 11 8 14 8 2749 -1 2820 -7 62 -45 192
-57 197 -4 2 -8 10 -8 18 0 13 -18 53 -30 64 -3 3 -19 23 -35 45 -96 129 -224
214 -388 256 -69 18 -137 18 -1502 18 -1147 -1 -1442 -3 -1490 -14z"/>
</g>
</svg>
